<?xml version="1.0" encoding="utf-8"?>
<!-- Generator: Adobe Illustrator 26.5.0, SVG Export Plug-In . SVG Version: 6.00 Build 0)  -->
<svg version="1.1" id="Layer_1" xmlns="http://www.w3.org/2000/svg" xmlns:xlink="http://www.w3.org/1999/xlink" x="0px" y="0px"
	 viewBox="0 0 500 210.5" style="enable-background:new 0 0 500 210.5;" xml:space="preserve">
<style type="text/css">
	.st0{fill:#3D195B;}
</style>
<path class="st0" d="M384.9,140.4l1.4-5.8h11.1v43.9c0,8.6-2.4,14.6-8.1,19c-4.3,3.3-10.1,5.7-17.1,5.7c-9.6,0-16.5-3.3-21.9-8.6
	l7-9.8c3.4,3.3,8.1,6.2,14.1,6.2c9.4,0,13.5-4.6,13.5-11.5v-3.3c-3.8,3.9-8.2,5.5-13.2,5.5c-13,0-23.3-10.6-23.3-24.2
	c0-13.4,10.6-23.7,23.7-23.7C377.4,133.9,382.2,136.5,384.9,140.4 M373.6,145.4c-6.7,0-12,5.1-12,12.2c0,6.7,5.3,12,12,12
	s12-5.3,12-12C385.6,150.5,380.3,145.4,373.6,145.4 M301.1,69.1c-5.3,0-9.8,3.1-10.8,8.1h21.3C310.5,72.4,306.2,69.1,301.1,69.1
	 M301.8,106.3c-14.2,0-24.7-9.8-24.7-24c0-12.9,9.4-24.3,24.4-24.3c11.1,0,22.6,8.4,22.6,24c0,1.2,0,2.7-0.3,4.5h-33.6
	c1.2,5.1,5.8,8.6,11.5,8.6c5.1,0,9.1-1.9,12.3-5.3l7.7,7.9C316.7,103.2,309.5,106.3,301.8,106.3 M444.3,69.1
	c-5.3,0-9.8,3.1-10.8,8.1h21.3C453.7,72.4,449.4,69.1,444.3,69.1 M445,106.3c-14.2,0-24.7-9.8-24.7-24c0-12.9,9.4-24.3,24.4-24.3
	c11.1,0,22.6,8.4,22.6,24c0,1.2,0,2.7-0.3,4.5h-33.6c1.2,5.1,5.8,8.6,11.5,8.6c5.1,0,9.1-1.9,12.3-5.3l7.7,7.9
	C459.9,103.2,452.7,106.3,445,106.3 M477,144.5c-5.3,0-9.8,3.1-10.8,8.1h21.3C486.4,147.8,482.2,144.5,477,144.5 M477.7,181.7
	c-14.2,0-24.7-9.8-24.7-24c0-12.9,9.4-24.3,24.4-24.3c11.1,0,22.6,8.4,22.6,24c0,1.2,0,2.7-0.3,4.5H466c1.2,5.1,5.8,8.6,11.5,8.6
	c5.1,0,9.1-1.9,12.3-5.3l7.7,7.9C492.6,178.6,485.4,181.7,477.7,181.7 M266.8,144.5c-5.3,0-9.8,3.1-10.8,8.1h21.3
	C276.2,147.8,271.9,144.5,266.8,144.5 M267.5,181.7c-14.2,0-24.7-9.8-24.7-24c0-12.9,9.4-24.3,24.3-24.3c11.1,0,22.6,8.4,22.6,24
	c0,1.2,0,2.7-0.3,4.5h-33.6c1.2,5.1,5.8,8.6,11.5,8.6c5.1,0,9.1-1.9,12.3-5.3l7.7,7.9C282.4,178.6,275.2,181.7,267.5,181.7
	 M197,180.5v-68h13.5v55.2H240v12.9L197,180.5z M248.6,105.1V59.2h11l1.4,6.7c2.1-4.3,6.2-7.2,11.7-7.2c1.2,0,2.4,0.2,3.6,0.5v12.2
	c-1.5-0.3-2.9-0.5-4.5-0.5c-6.2,0-10.5,3.8-10.5,11.1v23.1L248.6,105.1L248.6,105.1z M472.2,105.1V59.2h11l1.4,6.7
	c2.1-4.3,6.2-7.2,11.7-7.2c1.2,0,2.4,0.2,3.6,0.5v12.2c-1.5-0.3-2.9-0.5-4.5-0.5c-6.2,0-10.5,3.8-10.5,11.1v23.1L472.2,105.1
	L472.2,105.1z M383.6,78c0-5-2.7-8.1-7-8.1c-5,0-7.5,3.1-7.5,8.2v26.9h-12.7V78c0-5-2.7-8.1-7-8.1c-5,0-7.5,3.1-7.5,8.2v26.9H329
	V59.2h11.1l1.4,6c0,0,2.7-7.2,11.3-7.2c5.3,0,9.8,2.2,12.9,6.9l0.3,0.5l0.3-0.5c4.5-6.3,9.9-6.9,13.4-6.9c9.8,0,16.5,7.4,16.5,17.8
	v29.3h-12.7L383.6,78L383.6,78z M409.1,53c-4.5,0-7.9-3.4-7.9-7.7c0-4.5,3.4-7.9,7.9-7.9s7.9,3.4,7.9,7.9
	C417,49.6,413.6,53,409.1,53 M402.6,59.2h12.7v45.9h-12.7V59.2z M319.4,145.4c-6.9,0-12,5.1-12,12.2c0,6.7,5.1,12,12,12
	c6.7,0,11.8-5.3,11.8-12C331.3,150.5,326.1,145.4,319.4,145.4 M316.9,181.7c-12.2,0-22.8-11.1-22.8-24.2c0-12.9,10.6-23.7,22.8-23.7
	c6.9,0,11.5,2.4,14.2,6.7l1.4-6h11.1v45.9h-11.1l-1.4-5.8C328.3,178.8,323.2,181.7,316.9,181.7 M426.1,181.7
	c-10.1,0-22.5-5.5-22.5-22.6v-24.5h12.7v23.7c0,7.9,3.6,11.3,9.8,11.3c5.7,0,9.8-3.9,9.8-11.3v-23.7h12.7v24.5
	C448.6,176.2,436,181.7,426.1,181.7 M210.5,69.3h7.9c6.9,0,11.8-3.8,11.8-10.6c0-6.9-5-10.5-11.8-10.5h-7.9V69.3z M197,105.1V35.3
	h22.1c14.4,0,25.2,8.6,25.2,23.3c0,14.9-10.6,23.7-25.2,23.7h-8.6v22.8L197,105.1z M148.5,96.3c-4.6,3.8-8.5,5.9-8.5,5.9l0.1,12
	c3.3,3.6,6.5,6.5,9,12C153.6,118,152.7,106.1,148.5,96.3 M144.7,135.4c0,0-0.9-4.9-4.9-9.5l-9.1,0.2c0,0-12.3,10.3-19.8,10.6
	c0,0,4.1,7.5,6.2,11.4c4.1-0.9,11.4-4.1,14.3-7.4c0,0,1.9,6.1,1.6,13.3C137.1,151.7,142.7,145.4,144.7,135.4 M133,113.9l0-11.9
	c0,0-5.5-1.7-11.3-6.1C110,97.6,95.8,109,95.8,109s4.8,8.8,10,18.4C115,128.7,128.6,117.3,133,113.9 M164.1,163.4l-7.5-8.1
	c-2.1,22-13.2,40.6-33.4,53.6l-3.1-11.8c-17.2,12.1-46.7,20-72,6c3.1-15.7,5.9-31.5-0.1-50.5C34,173.7,21.6,182,21.6,182
	c-9.5-15.5-8.6-46.7-5.8-55.8L0,131c0-10.5,7.7-32.7,18.9-45.1l-9.9-1.5h0C15.8,70.9,25.7,59.4,38,50.8l0,0
	c-3.7,5.7-3.7,19.6,7,24.9c-4.6-7.8-5.1-17.5-0.3-22.5c4.8-5,12.8-3.3,17.9,0.6c-1.5-4.4-6-9.8-12.7-10.2h0
	c12.6-6.3,27-9.9,42.2-9.9c2.8,0,5.7,0.1,8.4,0.4c4.4,1.7,10.9,7.8,13.9,11.6c0,0,0.2-4.5-2.3-9.8c16.5,3.9,24.3,10.4,27.6,13.6
	c0.7,6.9,2.8,11.1,5.6,17.7c-5.3-5.8-18.7-15.2-25.1-17.5c0,0-0.5,6-2.7,8.9c-12.7-9-19-11.2-19-11.2c-14,2-23,7.2-27.9,11.3
	l4.3,3.5C66.5,64.7,61,71.8,61,71.8c0.1,0.1,7.5,1.2,7.5,1.2s-0.8,8.6,10.2,13.9c9.4,4.6,22.9-1.1,35.7,3.9
	c-8.4-9.4-14.2-13.6-14.2-13.6s-3.3-0.7-5.7-0.7c-2.9,0-7.3,0.6-12.1-1.2c-2.3-0.9-5-2.4-7.1-3.7c0,0,5.9-5.9,14.5-7.2
	c0,0,7.8,2.1,13.9,6.6c4.1-3.9,8.3-3.8,8.3-3.8s-4.2,3.8-2.9,8.5c6.1,5.3,12.8,13,12.8,13c6.8-3.6,21.5-2.8,24.5,0.6
	c-3.8-4.9-9.4-8.9-13.6-12.4c-0.5-1.8-5.2-8.1-6-8.7c0,0,4.4,1.3,8.4,4.8c1.1-1.6,3.3-3.2,6.2-3.9c3,2.4,3.5,6.2,3.4,6.8
	c-1.3,1.6-2.7,2.2-2.7,2.2l7.2,7.6l0.7-5.4C166.7,103.2,175.7,129.9,164.1,163.4 M33.4,17.6C43,21.8,49.1,27.2,50.2,28
	c-0.5-2.4-2.4-14-3.5-21.2c5.6,3.8,18.5,12.5,22.7,15.3C71.2,17,77.2,0,77.2,0S88,17.1,89.9,19.9c2.3-2.3,15.2-16.4,18.6-19.9
	c0.6,8.1,1.3,19.7,1.5,21.4c0.6-0.9,5.6-7.6,13.9-13.9c-3.6,6.9-5.3,16.5-6.1,24.1c-8.2-2.2-16.8-3.4-25.7-3.4
	c-17.1,0-33.1,4.4-47,12.1C42.6,32.9,38.7,23.7,33.4,17.6"/>
</svg>
